<svg width="33" height="46" viewBox="0 0 33 46" fill="none" xmlns="http://www.w3.org/2000/svg">
<path d="M18.0161 0.554955L32.4449 14.7988C32.6299 14.9838 32.6299 15.3537 32.8149 15.5387C32.9999 15.7237 32.9999 16.0937 32.9999 16.2787C32.9999 16.4637 32.9999 16.8336 32.8149 17.0186C32.6299 17.2036 32.6299 17.5736 32.2599 17.7586C32.075 17.9435 31.89 18.1285 31.52 18.3135C31.15 18.4985 30.9651 18.4985 30.7801 18.4985C30.5951 18.4985 30.2251 18.4985 30.0401 18.3135C29.6702 18.1285 29.4852 17.9435 29.3002 17.7586L18.756 7.3994V42.7315C18.756 43.1015 18.5711 43.2865 18.5711 43.6564C18.5711 43.8414 18.3861 44.2114 18.0161 44.3964C17.8311 44.5814 17.6461 44.7663 17.2762 44.9513C17.0912 45.1363 16.7212 45.1363 16.3512 45.1363C16.1663 45.1363 15.7963 45.1363 15.6113 44.9513C15.4263 44.7663 15.0563 44.7663 14.8714 44.3964C14.6864 44.2114 14.5014 44.0264 14.3164 43.6564C14.1314 43.4715 14.1314 43.1015 14.1314 42.7315V7.3994L3.58728 17.9435C3.58728 18.1285 3.21731 18.3135 3.03233 18.4985C2.84734 18.6835 2.47737 18.6835 2.29239 18.6835C1.92242 18.6835 1.73743 18.6835 1.55245 18.4985C1.36746 18.3135 0.997495 18.1285 0.81251 17.9435C0.627525 17.7585 0.627526 17.5736 0.442541 17.2036C0.0725709 17.0186 -0.112415 16.8336 0.0725704 16.4637C0.0725704 16.2787 0.0725702 15.9087 0.257555 15.7237C0.257555 15.5387 0.44254 15.1688 0.81251 14.9838L15.0563 0.554955C15.2413 0.554955 15.4263 0.36997 15.4263 0.36997C15.4263 0.36997 15.6113 0.184985 15.7963 0.184985C15.9813 0.184985 16.1663 0.184985 16.1663 0C16.3512 0 16.3512 0 16.5362 0C16.5362 0 16.7212 0 16.9062 0C17.0912 0 17.2762 4.13473e-08 17.2762 0.184985C17.4612 0.184985 17.4612 0.36997 17.6461 0.36997C17.8311 0.36997 18.0161 0.36997 18.0161 0.554955Z" fill="white"/>
</svg>
