<svg width="33" height="46" viewBox="0 0 33 46" fill="none" xmlns="http://www.w3.org/2000/svg">
<path d="M18.0142 0.554897L32.4416 14.7973C32.6265 14.9822 32.6265 15.3522 32.8115 15.5371C32.9965 15.7221 32.9965 16.092 32.9965 16.277C32.9965 16.4619 32.9965 16.8319 32.8115 17.0168C32.6265 17.2018 32.6265 17.5717 32.2566 17.7567C32.0716 17.9417 31.8867 18.1266 31.5167 18.3116C31.1468 18.4966 30.9618 18.4966 30.7769 18.4966C30.5919 18.4966 30.222 18.4966 30.037 18.3116C29.6671 18.1266 29.4821 17.9417 29.2971 17.7567L18.7541 7.39863V42.7271C18.7541 43.097 18.5691 43.282 18.5691 43.6519C18.5691 43.8369 18.3842 44.2068 18.0142 44.3918C17.8293 44.5767 17.6443 44.7617 17.2744 44.9467C17.0894 45.1316 16.7195 45.1316 16.3495 45.1316C16.1646 45.1316 15.7946 45.1316 15.6097 44.9467C15.4247 44.7617 15.0548 44.7617 14.8698 44.3918C14.6849 44.2068 14.4999 44.0218 14.3149 43.6519C14.13 43.4669 14.13 43.097 14.13 42.7271V7.39863L3.58691 17.9417C3.58691 18.1266 3.21698 18.3116 3.03201 18.4966C2.84705 18.6815 2.47712 18.6815 2.29215 18.6815C1.92222 18.6815 1.73725 18.6815 1.55229 18.4966C1.36732 18.3116 0.997392 18.1266 0.812426 17.9417C0.62746 17.7567 0.627461 17.5717 0.442495 17.2018C0.0725634 17.0168 -0.112403 16.8319 0.0725629 16.4619C0.0725629 16.277 0.0725627 15.9071 0.257528 15.7221C0.257528 15.5371 0.442494 15.1672 0.812426 14.9822L15.0548 0.554897C15.2398 0.554897 15.4247 0.369931 15.4247 0.369931C15.4247 0.369931 15.6097 0.184966 15.7947 0.184966C15.9796 0.184966 16.1646 0.184966 16.1646 0C16.3495 0 16.3495 0 16.5345 0C16.5345 0 16.7195 0 16.9044 0C17.0894 0 17.2744 4.13431e-08 17.2744 0.184966C17.4593 0.184966 17.4593 0.369931 17.6443 0.369931C17.8293 0.369931 18.0142 0.369931 18.0142 0.554897Z" fill="white"/>
</svg>
