<svg width="40" height="40" viewBox="0 0 40 40" fill="none" xmlns="http://www.w3.org/2000/svg">
<path d="M20.56 39.9915H20.3596C17.6111 39.9717 14.8943 39.4031 12.3685 38.3192C9.84269 37.2352 7.55883 35.6577 5.65091 33.6792C2.11169 29.8944 0.0998339 24.9327 0.00361719 19.7518C-0.0925995 14.5709 1.73364 9.53803 5.1299 5.62441C7.31633 3.17049 10.0675 1.28595 13.1456 0.133686C13.5046 -0.00446744 13.8958 -0.0363605 14.2724 0.0418147C14.6491 0.11999 14.9953 0.304929 15.2697 0.574547C15.5238 0.833697 15.7028 1.157 15.7875 1.50994C15.8722 1.86288 15.8595 2.2322 15.7506 2.57846C14.6524 5.58621 14.4348 8.8448 15.1234 11.9719C15.812 15.0989 17.3782 17.9647 19.6382 20.2329C21.9193 22.486 24.7919 24.0469 27.9235 24.735C31.055 25.423 34.3173 25.2099 37.3328 24.1205C37.6917 23.9942 38.0792 23.9727 38.4499 24.0584C38.8206 24.1442 39.1592 24.3337 39.4262 24.6049C39.6931 24.876 39.8773 25.2176 39.9573 25.5896C40.0373 25.9616 40.0097 26.3487 39.8778 26.7056C38.8518 29.4372 37.253 31.9176 35.1886 33.9798C33.2665 35.8961 30.9847 37.4138 28.4742 38.4455C25.9638 39.4772 23.2742 40.0026 20.56 39.9915Z" fill="white"/>
</svg>
