<svg width="44" height="28" viewBox="0 0 44 28" fill="none" xmlns="http://www.w3.org/2000/svg">
<path d="M29.6831 18.8411C29.6269 20.2494 30.0985 21.6279 31.0056 22.7067C31.4724 23.128 32.0191 23.4513 32.6132 23.6575C33.2073 23.8636 33.8367 23.9485 34.4642 23.907C35.465 23.9351 36.4487 23.6429 37.2718 23.0729C37.9307 22.6531 38.4371 22.0325 38.7163 21.3029H43.4159C42.8948 23.3731 41.6636 25.1947 39.9369 26.4501C38.2443 27.5095 36.2773 28.0472 34.2811 27.9963C32.8899 27.9991 31.5102 27.7439 30.2121 27.2436C29.0273 26.7992 27.9519 26.1054 27.0587 25.2091C26.1636 24.2523 25.4715 23.1243 25.0242 21.8929C24.0785 19.1719 24.0785 16.2114 25.0242 13.4904C25.4721 12.2533 26.164 11.1186 27.0587 10.1539C27.9422 9.19096 29.016 8.42198 30.2121 7.8956C31.4956 7.33958 32.8825 7.06221 34.2811 7.08181C35.7635 6.99933 37.2437 7.27862 38.5942 7.8956C39.8012 8.53085 40.8455 9.43592 41.6459 10.5404C42.4514 11.6815 43.0314 12.9659 43.3549 14.3246C43.7086 15.7746 43.8322 17.2713 43.7211 18.7598H29.6831V18.8411ZM37.1497 12.2494C36.7479 11.8606 36.268 11.5615 35.7419 11.3721C35.2158 11.1827 34.6554 11.1073 34.098 11.1508C33.3945 11.1424 32.6985 11.2955 32.0635 11.5984C31.5421 11.8638 31.0841 12.2385 30.7207 12.697C30.3915 13.1124 30.1494 13.5898 30.0087 14.1008C29.8854 14.5328 29.8036 14.9756 29.7645 15.4232H38.4925C38.39 14.2503 37.9201 13.1397 37.1497 12.2494ZM28.5845 1.79215H39.4894V4.5387H28.5845V1.79215ZM19.6328 25.5956C18.7087 26.2615 17.666 26.7448 16.5607 27.0198C15.4132 27.3279 14.2291 27.4784 13.041 27.4674H0V0.00180214H12.6952C13.8777 -0.0161361 15.0584 0.0998908 16.2148 0.347665C17.1833 0.544616 18.103 0.931871 18.9207 1.48698C19.6691 2.00348 20.2717 2.70418 20.6704 3.52146C21.1045 4.53602 21.3128 5.63287 21.2807 6.73595C21.3218 7.95649 20.9958 9.16129 20.3449 10.1946C19.6494 11.1859 18.701 11.9728 17.5983 12.4732C19.099 12.8583 20.4123 13.7676 21.3011 15.0366C22.1386 16.3529 22.5571 17.8923 22.5014 19.4515C22.5321 20.6983 22.2598 21.934 21.708 23.0525C21.2417 24.0616 20.5279 24.9365 19.6328 25.5956ZM15.218 6.24767C15.0025 5.8537 14.6867 5.52379 14.3024 5.29146C13.9019 5.05051 13.4606 4.88502 13.0004 4.80319C12.4879 4.73359 11.9713 4.6996 11.4542 4.70146H5.9407V11.1304H12.0442C12.9751 11.1787 13.8944 10.9057 14.6483 10.3573C14.9832 10.0475 15.2406 9.66329 15.3997 9.23566C15.5587 8.80803 15.6149 8.34898 15.5638 7.8956C15.5836 7.3264 15.4649 6.76091 15.218 6.24767ZM15.4621 16.0335C14.5655 15.3855 13.4746 15.0625 12.3697 15.118H5.9407V22.7067H12.2679C12.8292 22.7096 13.389 22.6481 13.9362 22.5236C14.4166 22.4778 14.8851 22.3469 15.3197 22.137C15.7289 21.8606 16.0585 21.4818 16.2759 21.0384C16.5362 20.479 16.6549 19.8641 16.6217 19.248C16.7098 18.6581 16.6499 18.0555 16.4475 17.4945C16.2451 16.9334 15.9065 16.4314 15.4621 16.0335Z" fill="white"/>
</svg>
