<svg width="32" height="32" viewBox="0 0 32 32" fill="none" xmlns="http://www.w3.org/2000/svg">
<path d="M16.1002 2.81754C20.3265 2.81754 20.9303 2.81754 22.5403 2.81754C24.1504 2.81754 24.9554 3.22005 25.5591 3.4213C26.3641 3.62255 26.7666 4.02506 27.3704 4.62882C27.9742 5.23258 28.3767 5.63508 28.5779 6.44009C28.7792 7.04385 28.9804 7.84886 29.1817 9.45889C29.1817 11.0689 29.1817 11.6727 29.1817 15.899C29.1817 20.1253 29.1817 20.7291 29.1817 22.3391C29.1817 23.9491 28.7792 24.7541 28.5779 25.3579C28.3767 26.1629 27.9742 26.5654 27.3704 27.1691C26.7666 27.7729 26.3641 28.1754 25.5591 28.3767C24.9554 28.5779 24.1504 28.7792 22.5403 28.9804C20.9303 28.9804 20.3265 28.9804 16.1002 28.9804C11.8739 28.9804 11.2702 28.9804 9.66014 28.9804C8.05012 28.9804 7.24511 28.5779 6.64135 28.3767C5.83633 28.1754 5.43383 27.7729 4.83007 27.1691C4.22631 26.5654 3.82381 26.1629 3.62255 25.3579C3.4213 24.7541 3.22005 23.9491 3.01879 22.3391C3.01879 20.7291 3.01879 20.1253 3.01879 15.899C3.01879 11.6727 3.01879 11.0689 3.01879 9.45889C3.01879 7.84886 3.4213 7.04385 3.62255 6.44009C3.82381 5.63508 4.22631 5.23258 4.83007 4.62882C5.43383 4.02506 5.83633 3.62255 6.64135 3.4213C7.24511 3.22005 8.05012 3.01879 9.66014 2.81754C11.2702 2.81754 11.8739 2.81754 16.1002 2.81754ZM16.1002 0C11.6727 0 11.2702 0 9.45889 0C7.64761 0 6.64135 0.402506 5.63508 0.805012C4.62882 1.20752 3.62255 1.81128 2.81754 2.61629C1.81128 3.62255 1.20752 4.42756 0.805012 5.63508C0.402506 6.64135 0.201253 7.84886 0 9.45889C0 11.2702 0 11.6727 0 16.1002C0 20.5278 0 20.9303 0 22.7416C0 24.5529 0.402506 25.5591 0.805012 26.5654C1.20752 27.5717 1.81128 28.5779 2.61629 29.3829C3.4213 30.1879 4.42756 30.7917 5.43383 31.1942C6.44009 31.5967 7.64761 31.798 9.25763 31.9992C11.0689 31.9992 11.4714 31.9992 15.899 31.9992C20.3265 31.9992 20.7291 31.9992 22.5403 31.9992C24.3516 31.9992 25.3579 31.5967 26.3641 31.1942C27.3704 30.7917 28.3767 30.1879 29.1817 29.3829C29.9867 28.5779 30.5904 27.5717 30.9929 26.5654C31.3955 25.5591 31.5967 24.3516 31.798 22.7416C31.798 20.9303 31.798 20.5278 31.798 16.1002C31.798 11.6727 31.798 11.2702 31.798 9.45889C31.798 7.64761 31.3955 6.64135 30.9929 5.63508C30.5904 4.62882 29.9867 3.62255 29.1817 2.81754C28.3767 2.01253 27.3704 1.40877 26.3641 1.00626C25.3579 0.603759 24.1504 0.402506 22.5403 0.201253C20.9303 -1.94929e-07 20.5278 0 16.1002 0Z" fill="white"/>
</svg>
